<svg xmlns="http://www.w3.org/2000/svg" width="512" height="512" viewBox="0 0 512 512"><defs><linearGradient id="3-square-a" x1="100%" x2="0%" y1="50%" y2="50%"><stop offset="0%" stop-color="#FE9A8B"/><stop offset="40.85%" stop-color="#FD868C"/><stop offset="73.151%" stop-color="#F9748F"/><stop offset="100%" stop-color="#F78CA0"/></linearGradient></defs><path fill="url(#3-square-a)" fill-rule="evenodd" d="M470.644399,103.789175 C497.454597,130.599374 512.107945,166.20158 511.999401,204.083197 C511.999401,241.964813 497.237511,277.567019 470.427312,304.377218 L266.148798,507.895929 C263.326671,510.718056 259.527655,512.129119 255.837183,512.129119 C252.14671,512.129119 248.347694,510.609512 245.525568,507.787386 L41.6812265,303.943044 C14.8710282,277.132846 0.000594352479,241.639183 0.000594352479,203.757567 C-0.10794896,165.87595 14.6539416,130.273744 41.4641399,103.463546 C68.1657949,76.7618906 103.768001,62 141.541074,62 C179.422691,62 215.133441,76.8704339 241.943639,103.680632 L256.162813,117.899806 L270.1649,103.897719 C296.975098,77.0875205 332.577305,62.3256299 370.458921,62.3256299 C408.340537,62.3256299 443.834201,76.9789772 470.644399,103.789175 Z M449.804083,283.645445 C471.078572,262.370956 482.80125,234.149694 482.692707,204.083197 C482.692707,174.016699 471.078572,145.795438 449.804083,124.520948 C428.529594,103.355002 400.308332,91.6323244 370.350378,91.6323244 C340.392424,91.6323244 312.062619,103.355002 290.78813,124.629492 L266.474428,148.943194 C260.721632,154.695989 251.49545,154.695989 245.742655,148.943194 L221.211866,124.412405 C199.937377,103.137916 171.607572,91.4152378 141.541074,91.4152378 C111.58312,91.4152378 83.3618587,103.137916 62.1959126,124.303862 C40.9214233,145.469808 29.3072888,173.691069 29.3072888,203.757567 C29.3072888,233.824064 41.0299666,262.045326 62.304456,283.319815 L255.837183,476.852542 L449.804083,283.645445 Z M430.504044,283.694083 L255.85064,457.662299 L81.5881778,283.400878 C62.4320126,264.244827 47.1648048,238.663282 51.8765747,211.761157 C54.2234009,198.361816 76.889486,184.34228 99.6937109,199.983643 C111.517276,208.093398 147.572076,231.677044 186.357012,233.351667 C222.376957,234.906905 238.411152,217.179291 255.566646,206.332809 C272.72214,195.486328 296.291097,192.562166 322.304943,196.13192 C348.318789,199.701674 363.615475,210.812928 395.741858,211.761157 C413.974893,212.299316 420.960476,202.658656 433.354949,199.983643 C442.799385,197.945315 460.117911,200.346577 460.117911,212.054362 C460.215647,239.126944 449.660209,264.538032 430.504044,283.694083 Z"/></svg>