<?xml version="1.0" standalone="no"?>
<!DOCTYPE svg PUBLIC "-//W3C//DTD SVG 20010904//EN"
 "http://www.w3.org/TR/2001/REC-SVG-20010904/DTD/svg10.dtd">
<svg version="1.0" xmlns="http://www.w3.org/2000/svg"
 width="700.000000pt" height="700.000000pt" viewBox="0 0 700.000000 700.000000"
 preserveAspectRatio="xMidYMid meet">
<metadata>
Created by potrace 1.11, written by Peter Selinger 2001-2013
</metadata>
<g transform="translate(0.000000,700.000000) scale(0.100000,-0.100000)"
fill="#000000" stroke="none">
<path d="M1760 6143 c-65 -9 -178 -25 -205 -29 -16 -3 -71 -16 -120 -29 -444
-118 -830 -393 -1108 -792 -21 -29 -37 -56 -37 -59 0 -3 -9 -19 -20 -34 -69
-96 -172 -353 -214 -530 -24 -100 -28 -126 -46 -265 -7 -62 -5 -384 4 -422 2
-11 8 -43 11 -70 42 -293 180 -613 376 -875 70 -94 2953 -2988 3004 -3016 19
-10 54 -16 95 -17 54 0 71 4 102 26 38 26 2817 2793 2919 2905 186 207 343
504 414 784 21 86 30 131 50 255 11 62 13 341 4 425 -7 66 -12 105 -24 175
-22 132 -97 359 -165 494 -166 333 -428 615 -752 809 -183 110 -424 201 -628
236 -19 3 -46 8 -60 11 -110 21 -418 25 -538 6 -37 -6 -85 -13 -106 -16 -66
-9 -196 -44 -299 -81 -182 -63 -348 -153 -512 -275 -103 -77 -126 -98 -286
-256 l-116 -114 -105 103 c-261 257 -380 347 -623 466 -156 77 -377 147 -530
168 -27 3 -59 9 -70 11 -24 6 -379 11 -415 6z m380 -407 c14 -3 41 -8 61 -10
55 -7 200 -45 254 -67 289 -115 399 -193 708 -498 120 -119 234 -224 253 -234
43 -22 118 -24 165 -4 20 8 126 105 254 232 287 284 409 376 625 468 656 279
1408 74 1839 -503 248 -332 342 -736 275 -1184 -17 -118 -69 -276 -133 -404
-36 -73 -124 -219 -140 -232 -3 -3 -19 -23 -36 -45 -16 -22 -48 -60 -71 -85
-58 -61 -1117 -1118 -1988 -1984 l-709 -705 -1336 1337 c-735 736 -1356 1360
-1381 1389 -63 72 -65 74 -125 163 -112 168 -199 388 -230 580 -4 25 -9 54
-12 65 -9 38 -10 313 -2 374 33 238 99 433 206 610 247 408 655 676 1118 737
28 3 51 7 53 9 5 5 327 -3 352 -9z"/>
<path d="M969 4345 c-71 -19 -147 -65 -191 -115 -65 -73 -71 -97 -72 -255 -1
-169 18 -254 93 -411 57 -120 109 -198 205 -314 39 -47 616 -630 1282 -1296
l1211 -1211 1240 1236 c945 943 1253 1255 1297 1318 101 145 177 312 220 488
20 82 25 122 32 251 l6 111 -43 46 c-54 55 -127 80 -239 79 -86 0 -137 -15
-260 -77 -133 -67 -208 -87 -325 -86 -190 0 -331 25 -585 101 -159 49 -356 98
-413 105 -29 3 -65 8 -82 12 -46 9 -316 11 -376 3 -116 -16 -145 -22 -184 -31
-58 -15 -188 -60 -200 -69 -5 -4 -32 -20 -58 -35 -26 -14 -92 -57 -146 -94
-341 -239 -515 -300 -826 -288 -347 13 -717 148 -1122 408 -165 106 -222 129
-331 133 -50 2 -107 -1 -133 -9z"/>
</g>
</svg>
